<svg width="40" height="40" viewBox="0 0 40 40" fill="none" xmlns="http://www.w3.org/2000/svg">
<rect width="40" height="40" rx="20" fill="#2B6CB0" />
<path d="M10.5731 16.463L19.2321 12.134C19.3153 12.0925 19.407 12.0708 19.5001 12.0708C19.5931 12.0708 19.6848 12.0925 19.7681 12.134L28.4271 16.464C28.5266 16.5139 28.6104 16.5905 28.6689 16.6852C28.7274 16.78 28.7584 16.8891 28.7584 17.0005C28.7584 17.1119 28.7274 17.221 28.6689 17.3158C28.6104 17.4106 28.5266 17.4871 28.4271 17.537L19.7681 21.866C19.6848 21.9076 19.5931 21.9292 19.5001 21.9292C19.407 21.9292 19.3153 21.9076 19.2321 21.866L10.5731 17.536C10.4735 17.4861 10.3897 17.4096 10.3312 17.3148C10.2727 17.22 10.2417 17.1109 10.2417 16.9995C10.2417 16.8881 10.2727 16.779 10.3312 16.6842C10.3897 16.5895 10.4735 16.5129 10.5731 16.463Z" stroke="white" stroke-width="1.5" stroke-linecap="round" stroke-linejoin="round"/>
<path d="M30.5 21V17.5L28.5 16.5M12.5 18.5V23.912C12.4999 24.2904 12.6072 24.661 12.8093 24.9809C13.0115 25.3007 13.3002 25.5567 13.642 25.719L18.642 28.093C18.9101 28.2203 19.2032 28.2864 19.5 28.2864C19.7968 28.2864 20.0899 28.2203 20.358 28.093L25.358 25.719C25.6998 25.5567 25.9885 25.3007 26.1907 24.9809C26.3928 24.661 26.5001 24.2904 26.5 23.912V18.5" stroke="white" stroke-width="1.5" stroke-linecap="round" stroke-linejoin="round"/>
</svg>