<svg width="40" height="40" viewBox="0 0 40 40" fill="none" xmlns="http://www.w3.org/2000/svg">
<rect width="40" height="40" rx="20" fill="#2B6CB0"/>
<path d="M24.5 14.7502C24.6381 14.7502 24.75 14.8621 24.75 15.0002V16.7502H26.5C26.6381 16.7502 26.75 16.8621 26.75 17.0002C26.75 17.1383 26.6381 17.2502 26.5 17.2502H24.75V19.0002C24.75 19.1382 24.6381 19.2502 24.5 19.2502C24.3619 19.2502 24.25 19.1382 24.25 19.0002V17.2502H22.5C22.3619 17.2502 22.25 17.1383 22.25 17.0002C22.25 16.8621 22.3619 16.7502 22.5 16.7502H24.25V15.0002C24.25 14.8621 24.3619 14.7502 24.5 14.7502Z" fill="#2D3748" stroke="white"/>
<path d="M20.3418 12.8784C22.5054 10.853 24.8708 10.3251 26.7783 11.0718C28.8381 11.8783 30.25 14.1316 30.25 17.3179C30.2499 19.2669 29.2033 21.2403 27.8193 23.0054C26.4306 24.7766 24.6744 26.3732 23.1963 27.5728H23.1953L23.0615 27.6821C21.8344 28.6794 21.1033 29.2505 20 29.2505C19.0345 29.2505 18.3542 28.8132 17.377 28.0356L16.9385 27.6821L16.8047 27.5728C15.3264 26.3732 13.5695 24.7768 12.1807 23.0054C10.7967 21.2403 9.75007 19.2668 9.75 17.3179C9.75 14.1316 11.1619 11.8783 13.2217 11.0718C15.1292 10.3251 17.4945 10.853 19.6582 12.8784L20 13.1978L20.3418 12.8784ZM19.8174 13.7446C17.6125 11.3867 15.2155 10.828 13.4033 11.5376C11.5901 12.2478 10.25 14.2717 10.25 17.3179C10.2501 19.0979 11.2131 20.9608 12.5742 22.6968C13.9306 24.4267 15.6551 25.997 17.1191 27.1851C17.8066 27.743 18.299 28.1324 18.7148 28.3774C19.159 28.6392 19.5387 28.7505 20 28.7505C20.4613 28.7505 20.841 28.6392 21.2852 28.3774C21.701 28.1324 22.1933 27.7429 22.8809 27.1851C24.2533 26.0713 25.8546 24.6221 27.167 23.02L27.4258 22.6968C28.7869 20.9608 29.7499 19.098 29.75 17.3179C29.75 14.2717 28.4099 12.2478 26.5967 11.5376C24.7845 10.828 22.3874 11.3867 20.1826 13.7446C20.1354 13.7952 20.0692 13.8247 20 13.8247C19.9308 13.8247 19.8646 13.7952 19.8174 13.7446Z" fill="#2D3748" stroke="white"/>
</svg>
