<svg width="145" height="145" viewBox="0 0 145 145" fill="none" xmlns="http://www.w3.org/2000/svg">
<rect x="5.16658" y="5.16671" width="134.333" height="134.333" rx="67.1667" fill="#2B6CB0"/>
<rect x="5.16658" y="5.16671" width="134.333" height="134.333" rx="67.1667" stroke="white" stroke-width="10.3333"/>
<path d="M86.2837 56.0586C86.7115 56.0588 87.0581 56.4061 87.0581 56.834V62.2588H92.4829C92.9109 62.2588 93.2583 62.6062 93.2583 63.0342C93.2581 63.462 92.9108 63.8086 92.4829 63.8086H87.0581V69.2334C87.0581 69.6612 86.7115 70.0086 86.2837 70.0088C85.8557 70.0088 85.5083 69.6614 85.5083 69.2334V63.8086H80.0835C79.6556 63.8086 79.3083 63.462 79.3081 63.0342C79.3081 62.6062 79.6555 62.2588 80.0835 62.2588H85.5083V56.834C85.5083 56.406 85.8557 56.0586 86.2837 56.0586Z" fill="white" stroke="white" stroke-width="3.1"/>
<path d="M73.3931 50.2561C80.1007 43.9772 87.4338 42.342 93.3472 44.6575C99.7322 47.1578 104.108 54.1407 104.108 64.0178C104.108 69.6825 101.257 75.4143 97.3647 80.6174L96.5728 81.6506C92.2674 87.1419 86.8232 92.0911 82.2407 95.8098H82.2397L81.8237 96.1477C78.0197 99.2391 75.7537 101.009 72.3335 101.009C68.9133 101.009 66.6476 99.2394 62.8433 96.1477H62.8423L62.4263 95.8098L61.5571 95.0979C57.46 91.7119 52.7986 87.4172 48.9136 82.6741L48.0933 81.6506C43.8028 76.1786 40.5581 70.0599 40.5581 64.0178C40.5582 54.1406 44.9347 47.1577 51.3198 44.6575C57.2332 42.342 64.5661 43.977 71.2739 50.2561L72.3335 51.2483L73.3931 50.2561ZM92.7817 46.1008C87.1638 43.901 79.7341 45.6324 72.8989 52.9426C72.7525 53.0993 72.5481 53.1887 72.3335 53.1887C72.1188 53.1887 71.9136 53.0993 71.7671 52.9426C64.9321 45.6328 57.5031 43.9012 51.8853 46.1008C46.2637 48.302 42.108 54.5744 42.1079 64.0178C42.1079 69.5363 45.0932 75.3126 49.313 80.6946C53.2552 85.7222 58.201 90.3128 62.5435 93.9016L63.4028 94.6057C65.5343 96.3354 67.0591 97.5452 68.3481 98.3049C69.7251 99.1164 70.9034 99.4592 72.3335 99.4592C73.7636 99.4592 74.9419 99.1165 76.3188 98.3049C77.6079 97.5452 79.1318 96.3352 81.2632 94.6057C85.8017 90.9227 91.1483 86.0576 95.353 80.6946C99.5728 75.3126 102.558 69.5368 102.558 64.0178C102.558 54.5744 98.403 48.3021 92.7817 46.1008Z" fill="white" stroke="white" stroke-width="3.1"/>
</svg>
