<svg width="40" height="40" viewBox="0 0 40 40" fill="none" xmlns="http://www.w3.org/2000/svg">
<rect width="40" height="40" rx="20" fill="#2B6CB0"/>
<path d="M15 26V25C15 23.6739 15.5268 22.4021 16.4645 21.4645C17.4021 20.5268 18.6739 20 20 20M20 20C21.3261 20 22.5979 20.5268 23.5355 21.4645C24.4732 22.4021 25 23.6739 25 25V26M20 20C20.7956 20 21.5587 19.6839 22.1213 19.1213C22.6839 18.5587 23 17.7956 23 17C23 16.2044 22.6839 15.4413 22.1213 14.8787C21.5587 14.3161 20.7956 14 20 14C19.2044 14 18.4413 14.3161 17.8787 14.8787C17.3161 15.4413 17 16.2044 17 17C17 17.7956 17.3161 18.5587 17.8787 19.1213C18.4413 19.6839 19.2044 20 20 20ZM9 26V25C9 24.2044 9.31607 23.4413 9.87868 22.8787C10.4413 22.3161 11.2044 22 12 22M12 22C12.5304 22 13.0391 21.7893 13.4142 21.4142C13.7893 21.0391 14 20.5304 14 20C14 19.4696 13.7893 18.9609 13.4142 18.5858C13.0391 18.2107 12.5304 18 12 18C11.4696 18 10.9609 18.2107 10.5858 18.5858C10.2107 18.9609 10 19.4696 10 20C10 20.5304 10.2107 21.0391 10.5858 21.4142C10.9609 21.7893 11.4696 22 12 22ZM31 26V25C31 24.2044 30.6839 23.4413 30.1213 22.8787C29.5587 22.3161 28.7956 22 28 22M28 22C28.5304 22 29.0391 21.7893 29.4142 21.4142C29.7893 21.0391 30 20.5304 30 20C30 19.4696 29.7893 18.9609 29.4142 18.5858C29.0391 18.2107 28.5304 18 28 18C27.4696 18 26.9609 18.2107 26.5858 18.5858C26.2107 18.9609 26 19.4696 26 20C26 20.5304 26.2107 21.0391 26.5858 21.4142C26.9609 21.7893 27.4696 22 28 22Z" stroke="white" stroke-width="1.5" stroke-linecap="round" stroke-linejoin="round"/>
</svg>
