<svg width="40" height="40" viewBox="0 0 40 40" fill="none" xmlns="http://www.w3.org/2000/svg">
<rect width="40" height="40" rx="20" fill="#2B6CB0"/>
<path d="M20 9.75C20.5354 9.75 21.0708 9.86614 21.5684 10.0986C23.6213 11.0582 25.2911 12.8718 26.4453 14.9971C27.5999 17.1231 28.25 19.5809 28.25 21.8564C28.25 26.4879 24.5603 30.25 20 30.25C15.4397 30.25 11.75 26.4879 11.75 21.8564C11.75 19.5809 12.4001 17.1231 13.5547 14.9971C14.7089 12.8717 16.3787 11.0582 18.4316 10.0986C18.9292 9.86614 19.4646 9.75 20 9.75ZM19.1113 10.376C18.9522 10.422 18.795 10.4805 18.6426 10.5518C16.7119 11.4542 15.1125 13.1761 13.9941 15.2354C12.8763 17.2936 12.25 19.6701 12.25 21.8564C12.25 25.9442 15.2978 29.2986 19.1982 29.708L19.75 29.7656V10.1914L19.1113 10.376ZM20.25 22.6035V26.8965L26.9697 20.1768L27.3232 20.5303L20.25 27.6035V29.7656L20.8018 29.708C24.7022 29.2986 27.75 25.9442 27.75 21.8564C27.75 21.6719 27.7451 21.4862 27.7363 21.2998L27.7188 20.9258L27.8193 21.0264L27.6924 20.374L27.6836 20.1699L27.6582 20.1943L27.5088 19.4229C27.3527 18.6172 27.1225 17.8098 26.8252 17.0254L26.5508 16.3027L20.25 22.6035ZM20.25 17.1035V21.8965L26.3164 15.8301L26.1484 15.5059C26.1016 15.415 26.0543 15.3246 26.0059 15.2354C25.6444 14.5697 25.2331 13.9407 24.7783 13.3643L24.4307 12.9229L20.25 17.1035ZM20.25 16.3965L24.0928 12.5537L23.7236 12.2002C23.0106 11.5185 22.2172 10.9537 21.3574 10.5518C21.205 10.4805 21.0478 10.422 20.8887 10.376L20.25 10.1914V16.3965Z" fill="#2D3748" stroke="white"/>
</svg>
