<svg width="40" height="40" viewBox="0 0 40 40" fill="none" xmlns="http://www.w3.org/2000/svg">
<rect width="40" height="40" rx="20" fill="#2B6CB0"/>
<path d="M21.667 24H18.333V21.667H16V18.333H18.333V16H21.667V18.333H24V21.667H21.667V24Z" stroke="white" stroke-width="1.5" stroke-linecap="round" stroke-linejoin="round"/>
<path d="M12.9999 26L11.1299 12.913C11.0943 12.6639 11.1543 12.4105 11.2979 12.2039C11.4415 11.9972 11.658 11.8526 11.9039 11.799L19.5659 10.096C19.8517 10.0325 20.148 10.0325 20.4339 10.096L28.0959 11.8C28.6059 11.913 28.9439 12.396 28.8699 12.914L26.9999 26C26.9299 26.495 26.4999 29.5 19.9999 29.5C13.4999 29.5 13.0699 26.495 12.9999 26Z" stroke="white" stroke-width="1.5" stroke-linecap="round" stroke-linejoin="round"/>
</svg>
