<svg width="145" height="145" viewBox="0 0 145 145" fill="none" xmlns="http://www.w3.org/2000/svg">
<rect x="5.16659" y="5.16671" width="134.333" height="134.333" rx="67.1667" fill="#E1E8EF"/>
<rect x="5.16659" y="5.16671" width="134.333" height="134.333" rx="67.1667" stroke="#2B6CB0" stroke-width="10.3333"/>
<path d="M86.2834 56.0587C86.7113 56.0589 87.0579 56.4062 87.0579 56.8341V62.2589H92.4827C92.9107 62.2589 93.2581 62.6063 93.2581 63.0343C93.2579 63.4621 92.9106 63.8087 92.4827 63.8087H87.0579V69.2335C87.0579 69.6614 86.7112 70.0087 86.2834 70.0089C85.8555 70.0089 85.5081 69.6615 85.5081 69.2335V63.8087H80.0833C79.6554 63.8087 79.3081 63.4621 79.3079 63.0343C79.3079 62.6063 79.6553 62.2589 80.0833 62.2589H85.5081V56.8341C85.5081 56.4061 85.8554 56.0587 86.2834 56.0587Z" fill="white" stroke="#2B6CB0" stroke-width="3.1"/>
<path d="M73.3918 50.2562C80.0995 43.9771 87.4334 42.3421 93.3469 44.6576C99.732 47.1579 104.108 54.1408 104.108 64.0179C104.108 69.6826 101.256 75.4144 97.3645 80.6176L96.5725 81.6508C92.2671 87.142 86.8229 92.0912 82.2405 95.8099H82.2395L81.8235 96.1478C78.0195 99.2392 75.7534 101.009 72.3333 101.009C68.913 101.009 66.6473 99.2395 62.843 96.1478H62.842L62.426 95.8099L61.5569 95.098C57.4598 91.712 52.7983 87.4173 48.9133 82.6742L48.093 81.6508C43.8025 76.1787 40.5579 70.0601 40.5579 64.0179C40.5579 54.1407 44.9344 47.1578 51.3196 44.6576C57.233 42.3421 64.5659 43.9771 71.2737 50.2562L72.3333 51.2484L73.3918 50.2562ZM92.7815 46.101C87.1635 43.9012 79.7338 45.6326 72.8987 52.9427C72.7522 53.0994 72.5479 53.1888 72.3333 53.1888C72.1186 53.1888 71.9133 53.0994 71.7668 52.9427C64.9318 45.6329 57.5029 43.9013 51.885 46.101C46.2635 48.3021 42.1077 54.5745 42.1077 64.0179C42.1077 69.5364 45.093 75.3128 49.3127 80.6947C53.2549 85.7223 58.2007 90.3129 62.5432 93.9017L63.4026 94.6058C65.534 96.3355 67.0588 97.5453 68.3479 98.3051C69.7249 99.1166 70.9031 99.4594 72.3333 99.4594C73.7634 99.4593 74.9416 99.1166 76.3186 98.3051C77.6076 97.5454 79.1316 96.3353 81.2629 94.6058C85.8015 90.9228 91.148 86.0577 95.3528 80.6947C99.5726 75.3127 102.558 69.5369 102.558 64.0179C102.558 54.5745 98.4028 48.3022 92.7815 46.101Z" fill="white" stroke="#2B6CB0" stroke-width="3.1"/>
</svg>
