<svg width="10" height="10" viewBox="0 0 10 10" fill="none" xmlns="http://www.w3.org/2000/svg">
<path d="M1.40039 9.00039V5.00039C1.40039 4.24615 1.40039 3.86902 1.63471 3.63471C1.86902 3.40039 2.24614 3.40039 3.00039 3.40039C3.75464 3.40039 4.13176 3.40039 4.36607 3.63471C4.60039 3.86902 4.60039 4.24615 4.60039 5.00039" stroke="white" stroke-width="0.6"/>
<path d="M7.00049 9V6.6C7.00049 5.84576 7.00049 5.46864 6.76617 5.23432C6.53185 5 6.15473 5 5.40049 5H4.60049C3.84624 5 3.46912 5 3.2348 5.23432C3.00049 5.46864 3.00049 5.84576 3.00049 6.6V9" stroke="white" stroke-width="0.6"/>
<path d="M8.60039 8.99991V3.30873C8.60039 2.77239 8.60039 2.50422 8.45795 2.29866C8.31547 2.09308 8.06439 1.99892 7.56219 1.8106C6.58007 1.44232 6.08903 1.25817 5.74471 1.49679C5.40039 1.73541 5.40039 2.25985 5.40039 3.30873V4.99991" stroke="white" stroke-width="0.6"/>
<path d="M1.80029 3.4V2.8C1.80029 2.42288 1.80029 2.23432 1.91745 2.11716C2.03461 2 2.22317 2 2.60029 2H3.40029C3.77742 2 3.96598 2 4.08314 2.11716C4.20029 2.23432 4.20029 2.42288 4.20029 2.8V3.4" stroke="white" stroke-width="0.6" stroke-linecap="round"/>
<path d="M3.00049 1.8V1" stroke="white" stroke-width="0.6" stroke-linecap="round"/>
<path d="M9.00049 9H1.00049" stroke="white" stroke-width="0.6" stroke-linecap="round"/>
<path d="M4.2002 6.2002H5.8002" stroke="white" stroke-width="0.6" stroke-linecap="round"/>
<path d="M4.2002 7.40039H5.8002" stroke="white" stroke-width="0.6" stroke-linecap="round"/>
</svg>
