<svg width="10" height="8" viewBox="0 0 10 8" fill="none" xmlns="http://www.w3.org/2000/svg">
<path d="M1.22971 2.585L4.69331 0.853397C4.7266 0.836777 4.7633 0.828125 4.80051 0.828125C4.83772 0.828125 4.87442 0.836777 4.90771 0.853397L8.37131 2.5854C8.41114 2.60534 8.44464 2.63598 8.46805 2.67388C8.49146 2.71178 8.50386 2.75545 8.50386 2.8C8.50386 2.84454 8.49146 2.88821 8.46805 2.92611C8.44464 2.96401 8.41114 2.99465 8.37131 3.0146L4.90771 4.7462C4.87442 4.76282 4.83772 4.77147 4.80051 4.77147C4.7633 4.77147 4.7266 4.76282 4.69331 4.7462L1.22971 3.0142C1.18988 2.99425 1.15638 2.96361 1.13298 2.92571C1.10957 2.88781 1.09717 2.84414 1.09717 2.7996C1.09717 2.75505 1.10957 2.71138 1.13298 2.67348C1.15638 2.63558 1.18988 2.60494 1.22971 2.585Z" stroke="white" stroke-width="0.6" stroke-linecap="round" stroke-linejoin="round"/>
<path d="M9.20049 4.39961V2.99961L8.40049 2.59961M2.00049 3.39961V5.56441C2.00046 5.71576 2.04336 5.86401 2.12422 5.99196C2.20508 6.1199 2.32057 6.22228 2.45729 6.28721L4.45729 7.23681C4.56453 7.28774 4.68177 7.31417 4.80049 7.31417C4.91921 7.31417 5.03645 7.28774 5.14369 7.23681L7.14369 6.28721C7.2804 6.22228 7.3959 6.1199 7.47675 5.99196C7.55761 5.86401 7.60052 5.71576 7.60049 5.56441V3.39961" stroke="white" stroke-width="0.6" stroke-linecap="round" stroke-linejoin="round"/>
</svg>
