<svg width="10" height="10" viewBox="0 0 10 10" fill="none" xmlns="http://www.w3.org/2000/svg">
<path d="M6.7998 2.90039C6.85497 2.90039 6.90029 2.94486 6.90039 3V3.7002H7.60059C7.6555 3.70041 7.69998 3.74489 7.7002 3.7998C7.7002 3.8549 7.65563 3.90018 7.60059 3.90039H6.90039V4.60059C6.90019 4.65564 6.8549 4.7002 6.7998 4.7002C6.74489 4.69999 6.7004 4.6555 6.7002 4.60059V3.90039H6C5.94486 3.90029 5.90039 3.85497 5.90039 3.7998C5.9006 3.74483 5.945 3.7003 6 3.7002H6.7002V3C6.7003 2.94499 6.74482 2.9006 6.7998 2.90039Z" fill="white" stroke="white" stroke-width="0.4"/>
<path d="M5.13672 2.15137C6.00222 1.34115 6.94888 1.12994 7.71191 1.42871C8.53575 1.75136 9.10059 2.6533 9.10059 3.92773C9.10041 4.70716 8.68137 5.49627 8.12793 6.20215C7.5724 6.91071 6.86961 7.54946 6.27832 8.0293L6.22461 8.07324C5.73386 8.47205 5.44128 8.7002 5 8.7002C4.55878 8.70013 4.26621 8.47212 3.77539 8.07324L3.72168 8.0293C3.13042 7.54948 2.42757 6.91064 1.87207 6.20215C1.31871 5.49631 0.900559 4.70708 0.900391 3.92773C0.900391 2.65323 1.46516 1.75132 2.28906 1.42871C3.05196 1.13018 3.99796 1.34145 4.86328 2.15137L5 2.2793L5.13672 2.15137ZM7.63867 1.61523C6.9138 1.33144 5.95515 1.5549 5.07324 2.49805C5.05434 2.51827 5.0277 2.53027 5 2.53027C4.97237 2.53022 4.94561 2.51822 4.92676 2.49805C4.04487 1.55504 3.08615 1.33141 2.36133 1.61523C1.63611 1.89936 1.10059 2.70937 1.10059 3.92773C1.10076 4.63966 1.4859 5.38481 2.03027 6.0791C2.57276 6.77091 3.26213 7.39888 3.84766 7.87402C4.12268 8.09721 4.32 8.25353 4.48633 8.35156C4.66379 8.45609 4.81567 8.49997 5 8.5C5.18454 8.5 5.33696 8.45628 5.51465 8.35156C5.68096 8.25354 5.87738 8.09714 6.15234 7.87402C6.73797 7.39879 7.42815 6.77111 7.9707 6.0791C8.51505 5.38483 8.90022 4.63969 8.90039 3.92773C8.90039 2.70922 8.36401 1.89926 7.63867 1.61523Z" fill="white" stroke="white" stroke-width="0.4"/>
</svg>
