<svg width="10" height="10" viewBox="0 0 10 10" fill="none" xmlns="http://www.w3.org/2000/svg">
<path d="M3.0001 7.40059V7.00059C3.0001 6.47015 3.21081 5.96145 3.58588 5.58637C3.96096 5.2113 4.46967 5.00059 5.0001 5.00059M5.0001 5.00059C5.53053 5.00059 6.03924 5.2113 6.41431 5.58637C6.78938 5.96145 7.0001 6.47015 7.0001 7.00059V7.40059M5.0001 5.00059C5.31836 5.00059 5.62358 4.87416 5.84863 4.64911C6.07367 4.42407 6.2001 4.11885 6.2001 3.80059C6.2001 3.48233 6.07367 3.1771 5.84863 2.95206C5.62358 2.72701 5.31836 2.60059 5.0001 2.60059C4.68184 2.60059 4.37661 2.72701 4.15157 2.95206C3.92653 3.1771 3.8001 3.48233 3.8001 3.80059C3.8001 4.11885 3.92653 4.42407 4.15157 4.64911C4.37661 4.87416 4.68184 5.00059 5.0001 5.00059ZM0.600098 7.40059V7.00059C0.600098 6.68233 0.726526 6.3771 0.95157 6.15206C1.17661 5.92701 1.48184 5.80059 1.8001 5.80059M1.8001 5.80059C2.01227 5.80059 2.21575 5.7163 2.36578 5.56627C2.51581 5.41624 2.6001 5.21276 2.6001 5.00059C2.6001 4.78841 2.51581 4.58493 2.36578 4.4349C2.21575 4.28487 2.01227 4.20059 1.8001 4.20059C1.58792 4.20059 1.38444 4.28487 1.23441 4.4349C1.08438 4.58493 1.0001 4.78841 1.0001 5.00059C1.0001 5.21276 1.08438 5.41624 1.23441 5.56627C1.38444 5.7163 1.58792 5.80059 1.8001 5.80059ZM9.4001 7.40059V7.00059C9.4001 6.68233 9.27367 6.3771 9.04863 6.15206C8.82358 5.92701 8.51836 5.80059 8.2001 5.80059M8.2001 5.80059C8.41227 5.80059 8.61576 5.7163 8.76578 5.56627C8.91581 5.41624 9.0001 5.21276 9.0001 5.00059C9.0001 4.78841 8.91581 4.58493 8.76578 4.4349C8.61576 4.28487 8.41227 4.20059 8.2001 4.20059C7.98793 4.20059 7.78444 4.28487 7.63441 4.4349C7.48438 4.58493 7.4001 4.78841 7.4001 5.00059C7.4001 5.21276 7.48438 5.41624 7.63441 5.56627C7.78444 5.7163 7.98793 5.80059 8.2001 5.80059Z" stroke="white" stroke-width="0.6" stroke-linecap="round" stroke-linejoin="round"/>
</svg>
