<svg width="10" height="10" viewBox="0 0 10 10" fill="none" xmlns="http://www.w3.org/2000/svg">
<path d="M5.00049 0.900391C5.21471 0.900391 5.42932 0.946977 5.62842 1.04004C6.44938 1.42391 7.11702 2.14905 7.57861 2.99902C8.04048 3.84945 8.30029 4.83291 8.30029 5.74316C8.30014 7.59562 6.82452 9.10059 5.00049 9.10059C3.17646 9.10059 1.70084 7.59562 1.70068 5.74316C1.70068 4.83291 1.96052 3.84946 2.42236 2.99902C2.88398 2.14904 3.55159 1.42391 4.37256 1.04004C4.57166 0.946977 4.78626 0.900391 5.00049 0.900391ZM4.64502 1.15039C4.58138 1.16881 4.5185 1.19222 4.45752 1.2207C3.68524 1.58168 3.04551 2.27099 2.59814 3.09473C2.1511 3.918 1.90088 4.8687 1.90088 5.74316C1.90102 7.378 3.11928 8.71985 4.6792 8.88379L4.90088 8.90625V1.07617L4.64502 1.15039ZM5.1001 6.04199V7.75879L7.78857 5.07031L7.9292 5.21191L7.75439 5.3877L5.1001 8.04199V8.90625L5.32178 8.88379C6.8817 8.71985 8.09995 7.378 8.1001 5.74316C8.1001 5.66943 8.09871 5.595 8.09521 5.52051L8.0874 5.37012L8.12842 5.41113L8.07666 5.15039L8.07373 5.06836L8.06299 5.07812L8.00342 4.76953C7.94098 4.44733 7.84985 4.12426 7.73096 3.81055L7.62061 3.52148L5.1001 6.04199ZM6.61377 2.32812L5.1001 3.8418V5.75879L7.52686 3.33203L7.46045 3.20215C7.44178 3.16592 7.42214 3.13031 7.40283 3.09473C7.25824 2.82848 7.09354 2.57629 6.91162 2.3457L6.77295 2.16992L6.61377 2.32812ZM5.1001 3.55859L5.44189 3.21777L6.49268 2.16602L6.63818 2.02148L6.48975 1.87988C6.20456 1.6073 5.88729 1.38143 5.54346 1.2207C5.48248 1.19222 5.4196 1.16881 5.35596 1.15039L5.1001 1.07617V3.55859Z" fill="white" stroke="white" stroke-width="0.4"/>
</svg>
