<svg width="8" height="10" viewBox="0 0 8 10" fill="none" xmlns="http://www.w3.org/2000/svg">
<path d="M4.66719 6.60039H3.33359V5.66719H2.40039V4.33359H3.33359V3.40039H4.66719V4.33359H5.60039V5.66719H4.66719V6.60039Z" stroke="white" stroke-width="0.6" stroke-linecap="round" stroke-linejoin="round"/>
<path d="M1.20025 7.40019L0.452246 2.16539C0.438014 2.06575 0.462029 1.96441 0.519463 1.88174C0.576898 1.79908 0.663494 1.74122 0.761846 1.71979L3.82665 1.03859C3.94098 1.01318 4.05951 1.01318 4.17385 1.03859L7.23865 1.72019C7.44265 1.76539 7.57785 1.95859 7.54825 2.16579L6.80025 7.40019C6.77225 7.59819 6.60025 8.80019 4.00025 8.80019C1.40025 8.80019 1.22825 7.59819 1.20025 7.40019Z" stroke="white" stroke-width="0.6" stroke-linecap="round" stroke-linejoin="round"/>
</svg>
