<svg width="10" height="10" viewBox="0 0 10 10" fill="none" xmlns="http://www.w3.org/2000/svg">
<mask id="path-1-inside-1_7343_17611" fill="white">
<path fill-rule="evenodd" clip-rule="evenodd" d="M4.97764 0.700195H5.02276C5.75788 0.700187 6.34012 0.700183 6.7958 0.761451C7.26476 0.824499 7.64436 0.957347 7.94372 1.25669C8.24304 1.55604 8.37588 1.93562 8.43896 2.40459C8.48004 2.71021 8.49356 3.07277 8.49799 3.5002H8.6002C8.9868 3.5002 9.3002 3.8136 9.3002 4.2002V4.6002C9.3002 4.82052 9.19648 5.028 9.0202 5.1602L8.4992 5.55092C8.49628 6.04392 8.48472 6.4552 8.43896 6.7958C8.37588 7.26476 8.24304 7.64436 7.94372 7.94372C7.86776 8.01964 7.78664 8.08488 7.7002 8.141V8.6002C7.7002 8.9868 7.3868 9.3002 7.0002 9.3002H6.4002C6.0136 9.3002 5.7002 8.9868 5.7002 8.6002V8.49799C5.49032 8.5002 5.26484 8.5002 5.02276 8.5002H4.97764C4.73556 8.5002 4.51008 8.5002 4.3002 8.49799V8.6002C4.3002 8.9868 3.9868 9.3002 3.6002 9.3002H3.0002C2.6136 9.3002 2.3002 8.9868 2.3002 8.6002V8.141C2.21376 8.08488 2.13264 8.01964 2.05669 7.94372C1.75735 7.64436 1.6245 7.26476 1.56145 6.7958C1.51566 6.4552 1.5041 6.04392 1.50118 5.55092L0.980195 5.1602C0.803931 5.028 0.700195 4.82052 0.700195 4.6002V4.2002C0.700195 3.8136 1.0136 3.5002 1.4002 3.5002H1.50238C1.50683 3.07277 1.52036 2.71021 1.56145 2.40459C1.6245 1.93562 1.75735 1.55604 2.05669 1.25669C2.35604 0.957347 2.73562 0.824499 3.20459 0.761451C3.66027 0.700183 4.24252 0.700187 4.97764 0.700195ZM1.5002 4.1002H1.4002C1.34497 4.1002 1.3002 4.14497 1.3002 4.2002V4.6002C1.3002 4.63168 1.31502 4.66132 1.3402 4.6802L1.5002 4.8002V4.17763C1.5002 4.15163 1.5002 4.12582 1.5002 4.1002ZM2.10249 5.7002C2.10684 6.11364 2.11948 6.44348 2.1561 6.71588C2.2102 7.11828 2.31167 7.35016 2.48096 7.51944C2.65024 7.68872 2.8821 7.7902 3.28454 7.84428C3.6956 7.89956 4.23748 7.9002 5.0002 7.9002C5.76292 7.9002 6.3048 7.89956 6.71588 7.84428C7.11828 7.7902 7.35016 7.68872 7.51944 7.51944C7.68872 7.35016 7.7902 7.11828 7.84428 6.71588C7.88092 6.44348 7.89356 6.11364 7.89792 5.7002H2.10249ZM7.9002 5.1002H2.1002C2.1002 5.06728 2.1002 5.03396 2.1002 5.0002V4.2002C2.1002 3.44712 2.10082 2.90934 2.15403 2.5002H7.84636C7.89956 2.90934 7.9002 3.44712 7.9002 4.2002V5.0002C7.9002 5.03396 7.9002 5.06728 7.9002 5.1002ZM8.5002 4.8002L8.6602 4.6802C8.6854 4.66132 8.7002 4.63168 8.7002 4.6002V4.2002C8.7002 4.14497 8.65544 4.1002 8.6002 4.1002H8.5002C8.5002 4.12582 8.5002 4.15163 8.5002 4.17763V4.8002ZM7.6806 1.9002C7.63548 1.81488 7.58212 1.74363 7.51944 1.68096C7.35016 1.51167 7.11828 1.4102 6.71588 1.3561C6.3048 1.30083 5.76292 1.3002 5.0002 1.3002C4.23748 1.3002 3.6956 1.30083 3.28454 1.3561C2.8821 1.4102 2.65024 1.51167 2.48096 1.68096C2.41828 1.74363 2.3649 1.81488 2.31978 1.9002H7.6806ZM2.9002 8.3844V8.6002C2.9002 8.65544 2.94497 8.7002 3.0002 8.7002H3.6002C3.65542 8.7002 3.7002 8.65544 3.7002 8.6002V8.48188C3.52046 8.4728 3.35558 8.45924 3.20459 8.43896C3.09859 8.42468 2.99716 8.40688 2.9002 8.3844ZM6.3002 8.48188V8.6002C6.3002 8.65544 6.34496 8.7002 6.4002 8.7002H7.0002C7.05544 8.7002 7.1002 8.65544 7.1002 8.6002V8.3844C7.00324 8.40688 6.9018 8.42468 6.7958 8.43896C6.64484 8.45924 6.47992 8.4728 6.3002 8.48188ZM2.7002 6.6002C2.7002 6.43452 2.83451 6.3002 3.0002 6.3002H3.6002C3.76588 6.3002 3.9002 6.43452 3.9002 6.6002C3.9002 6.76588 3.76588 6.9002 3.6002 6.9002H3.0002C2.83451 6.9002 2.7002 6.76588 2.7002 6.6002ZM6.1002 6.6002C6.1002 6.43452 6.23452 6.3002 6.4002 6.3002H7.0002C7.16588 6.3002 7.3002 6.43452 7.3002 6.6002C7.3002 6.76588 7.16588 6.9002 7.0002 6.9002H6.4002C6.23452 6.9002 6.1002 6.76588 6.1002 6.6002Z"/>
</mask>
<path fill-rule="evenodd" clip-rule="evenodd" d="M4.97764 0.700195H5.02276C5.75788 0.700187 6.34012 0.700183 6.7958 0.761451C7.26476 0.824499 7.64436 0.957347 7.94372 1.25669C8.24304 1.55604 8.37588 1.93562 8.43896 2.40459C8.48004 2.71021 8.49356 3.07277 8.49799 3.5002H8.6002C8.9868 3.5002 9.3002 3.8136 9.3002 4.2002V4.6002C9.3002 4.82052 9.19648 5.028 9.0202 5.1602L8.4992 5.55092C8.49628 6.04392 8.48472 6.4552 8.43896 6.7958C8.37588 7.26476 8.24304 7.64436 7.94372 7.94372C7.86776 8.01964 7.78664 8.08488 7.7002 8.141V8.6002C7.7002 8.9868 7.3868 9.3002 7.0002 9.3002H6.4002C6.0136 9.3002 5.7002 8.9868 5.7002 8.6002V8.49799C5.49032 8.5002 5.26484 8.5002 5.02276 8.5002H4.97764C4.73556 8.5002 4.51008 8.5002 4.3002 8.49799V8.6002C4.3002 8.9868 3.9868 9.3002 3.6002 9.3002H3.0002C2.6136 9.3002 2.3002 8.9868 2.3002 8.6002V8.141C2.21376 8.08488 2.13264 8.01964 2.05669 7.94372C1.75735 7.64436 1.6245 7.26476 1.56145 6.7958C1.51566 6.4552 1.5041 6.04392 1.50118 5.55092L0.980195 5.1602C0.803931 5.028 0.700195 4.82052 0.700195 4.6002V4.2002C0.700195 3.8136 1.0136 3.5002 1.4002 3.5002H1.50238C1.50683 3.07277 1.52036 2.71021 1.56145 2.40459C1.6245 1.93562 1.75735 1.55604 2.05669 1.25669C2.35604 0.957347 2.73562 0.824499 3.20459 0.761451C3.66027 0.700183 4.24252 0.700187 4.97764 0.700195ZM1.5002 4.1002H1.4002C1.34497 4.1002 1.3002 4.14497 1.3002 4.2002V4.6002C1.3002 4.63168 1.31502 4.66132 1.3402 4.6802L1.5002 4.8002V4.17763C1.5002 4.15163 1.5002 4.12582 1.5002 4.1002ZM2.10249 5.7002C2.10684 6.11364 2.11948 6.44348 2.1561 6.71588C2.2102 7.11828 2.31167 7.35016 2.48096 7.51944C2.65024 7.68872 2.8821 7.7902 3.28454 7.84428C3.6956 7.89956 4.23748 7.9002 5.0002 7.9002C5.76292 7.9002 6.3048 7.89956 6.71588 7.84428C7.11828 7.7902 7.35016 7.68872 7.51944 7.51944C7.68872 7.35016 7.7902 7.11828 7.84428 6.71588C7.88092 6.44348 7.89356 6.11364 7.89792 5.7002H2.10249ZM7.9002 5.1002H2.1002C2.1002 5.06728 2.1002 5.03396 2.1002 5.0002V4.2002C2.1002 3.44712 2.10082 2.90934 2.15403 2.5002H7.84636C7.89956 2.90934 7.9002 3.44712 7.9002 4.2002V5.0002C7.9002 5.03396 7.9002 5.06728 7.9002 5.1002ZM8.5002 4.8002L8.6602 4.6802C8.6854 4.66132 8.7002 4.63168 8.7002 4.6002V4.2002C8.7002 4.14497 8.65544 4.1002 8.6002 4.1002H8.5002C8.5002 4.12582 8.5002 4.15163 8.5002 4.17763V4.8002ZM7.6806 1.9002C7.63548 1.81488 7.58212 1.74363 7.51944 1.68096C7.35016 1.51167 7.11828 1.4102 6.71588 1.3561C6.3048 1.30083 5.76292 1.3002 5.0002 1.3002C4.23748 1.3002 3.6956 1.30083 3.28454 1.3561C2.8821 1.4102 2.65024 1.51167 2.48096 1.68096C2.41828 1.74363 2.3649 1.81488 2.31978 1.9002H7.6806ZM2.9002 8.3844V8.6002C2.9002 8.65544 2.94497 8.7002 3.0002 8.7002H3.6002C3.65542 8.7002 3.7002 8.65544 3.7002 8.6002V8.48188C3.52046 8.4728 3.35558 8.45924 3.20459 8.43896C3.09859 8.42468 2.99716 8.40688 2.9002 8.3844ZM6.3002 8.48188V8.6002C6.3002 8.65544 6.34496 8.7002 6.4002 8.7002H7.0002C7.05544 8.7002 7.1002 8.65544 7.1002 8.6002V8.3844C7.00324 8.40688 6.9018 8.42468 6.7958 8.43896C6.64484 8.45924 6.47992 8.4728 6.3002 8.48188ZM2.7002 6.6002C2.7002 6.43452 2.83451 6.3002 3.0002 6.3002H3.6002C3.76588 6.3002 3.9002 6.43452 3.9002 6.6002C3.9002 6.76588 3.76588 6.9002 3.6002 6.9002H3.0002C2.83451 6.9002 2.7002 6.76588 2.7002 6.6002ZM6.1002 6.6002C6.1002 6.43452 6.23452 6.3002 6.4002 6.3002H7.0002C7.16588 6.3002 7.3002 6.43452 7.3002 6.6002C7.3002 6.76588 7.16588 6.9002 7.0002 6.9002H6.4002C6.23452 6.9002 6.1002 6.76588 6.1002 6.6002Z" fill="white" stroke="white" stroke-width="0.8" mask="url(#path-1-inside-1_7343_17611)"/>
</svg>
