<svg width="20" height="20" viewBox="0 0 20 20" fill="none" xmlns="http://www.w3.org/2000/svg">
<g clip-path="url(#clip0_4356_268489)">
<path d="M17.5 0C18.8806 0 19.9999 1.1194 20 2.5V17.5C20 18.8807 18.8807 20 17.5 20H2.5C1.11946 19.9998 0 18.8806 0 17.5V2.5C0.000131904 1.11952 1.11954 0.000197864 2.5 0H17.5ZM1.25 17.2568V17.5C1.25 18.1902 1.80981 18.7498 2.5 18.75H4.40039L18.75 4.39941V2.5C18.7499 1.80976 18.1903 1.25 17.5 1.25H17.2578L1.25 17.2568ZM6.86719 18.75H11.8838L18.75 11.8838V6.86719L6.86719 18.75ZM14.3672 18.75H17.5C18.1904 18.75 18.75 18.1904 18.75 17.5V14.3672L14.3672 18.75ZM1.25 9.7334V14.2803L14.3613 1.25H9.7334L1.25 9.7334ZM2.5 1.25C1.80989 1.2502 1.25013 1.80988 1.25 2.5V6.70508L6.70508 1.25H2.5Z" fill="#EB7028"/>
</g>
<defs>
<clipPath id="clip0_4356_268489">
<rect width="20" height="20" fill="white"/>
</clipPath>
</defs>
</svg>
