<svg width="18" height="18" viewBox="0 0 18 18" fill="none" xmlns="http://www.w3.org/2000/svg">
<rect x="1" y="1" width="16" height="16" rx="2" fill="#FFCCAE" stroke="#EB7028" stroke-width="2"/>
<mask id="mask0_622_28090" style="mask-type:alpha" maskUnits="userSpaceOnUse" x="1" y="1" width="16" height="16">
<rect x="1" y="1" width="16" height="16" rx="2" fill="#D9D9D9"/>
<rect x="1.5" y="1.5" width="15" height="15" rx="1.5" stroke="#D96B27" stroke-opacity="0.8"/>
</mask>
<g mask="url(#mask0_622_28090)">
<line x1="-17.4101" y1="17.148" x2="9.75806" y2="-6.4718" stroke="#EB7028" stroke-width="1.25"/>
<line x1="-10.5119" y1="19.3359" x2="16.6562" y2="-4.28381" stroke="#EB7028" stroke-width="1.25"/>
<line x1="-3.61368" y1="21.5234" x2="23.5544" y2="-2.09631" stroke="#EB7028" stroke-width="1.25"/>
<line x1="6.73349" y1="24.8047" x2="33.9016" y2="1.18494" stroke="#EB7028" stroke-width="1.25"/>
<line x1="-13.9608" y1="18.2417" x2="13.2073" y2="-5.37805" stroke="#EB7028" stroke-width="1.25"/>
<line x1="-0.164704" y1="22.6172" x2="27.0034" y2="-1.00256" stroke="#EB7028" stroke-width="1.25"/>
<line x1="3.28427" y1="23.7109" x2="30.4524" y2="0.0911862" stroke="#EB7028" stroke-width="1.25"/>
<line x1="-7.0629" y1="20.4292" x2="20.1052" y2="-3.19055" stroke="#EB7028" stroke-width="1.25"/>
<line x1="10.1825" y1="25.8989" x2="37.3506" y2="2.27917" stroke="#EB7028" stroke-width="1.25"/>
<line x1="13.6314" y1="26.9927" x2="40.7996" y2="3.37292" stroke="#EB7028" stroke-width="1.25"/>
</g>
</svg>
